<?xml version="1.0" encoding="UTF-8" standalone="no"?>
<!-- Created with Inkscape (http://www.inkscape.org/) -->

<svg
   xmlns:dc="http://purl.org/dc/elements/1.1/"
   xmlns:cc="http://creativecommons.org/ns#"
   xmlns:rdf="http://www.w3.org/1999/02/22-rdf-syntax-ns#"
   xmlns:svg="http://www.w3.org/2000/svg"
   xmlns="http://www.w3.org/2000/svg"
   xmlns:xlink="http://www.w3.org/1999/xlink"
   xmlns:sodipodi="http://sodipodi.sourceforge.net/DTD/sodipodi-0.dtd"
   xmlns:inkscape="http://www.inkscape.org/namespaces/inkscape"
   width="576"
   height="576"
   viewBox="0 0 152.4 152.4"
   version="1.1"
   id="svg8"
   inkscape:version="0.92.2 (5c3e80d, 2017-08-06)"
   sodipodi:docname="Logo_Inkscape.svg"
   inkscape:export-filename="D:\Bibliotheken\Dokumente\GitHub\Vertretungsplan\Logo Test\ic_launcher-web.png"
   inkscape:export-xdpi="85.330002"
   inkscape:export-ydpi="85.330002">
  <defs
     id="defs2">
    <linearGradient
       inkscape:collect="always"
       id="linearGradient5216">
      <stop
         style="stop-color:#ff5722;stop-opacity:1"
         offset="0"
         id="stop5212" />
      <stop
         style="stop-color:#ffffff;stop-opacity:1"
         offset="1"
         id="stop5214" />
    </linearGradient>
    <filter
       style="color-interpolation-filters:sRGB;"
       inkscape:label="Drop Shadow"
       id="filter5194">
      <feFlood
         flood-opacity="0.498039"
         flood-color="rgb(0,0,0)"
         result="flood"
         id="feFlood5184" />
      <feComposite
         in="flood"
         in2="SourceGraphic"
         operator="in"
         result="composite1"
         id="feComposite5186" />
      <feGaussianBlur
         in="composite1"
         stdDeviation="1"
         result="blur"
         id="feGaussianBlur5188" />
      <feOffset
         dx="4.57967e-015"
         dy="4.52416e-015"
         result="offset"
         id="feOffset5190" />
      <feComposite
         in="SourceGraphic"
         in2="offset"
         operator="over"
         result="composite2"
         id="feComposite5192" />
    </filter>
    <linearGradient
       inkscape:collect="always"
       xlink:href="#linearGradient5216"
       id="linearGradient5218"
       x1="81.710251"
       y1="233.85756"
       x2="-57.249119"
       y2="79.69648"
       gradientUnits="userSpaceOnUse"
       gradientTransform="matrix(1.1452828,0,0,1.1361046,-12.15895,-33.408843)" />
  </defs>
  <sodipodi:namedview
     id="base"
     pagecolor="#ffffff"
     bordercolor="#666666"
     borderopacity="1.0"
     inkscape:pageopacity="0.0"
     inkscape:pageshadow="2"
     inkscape:zoom="1.4142136"
     inkscape:cx="235.8581"
     inkscape:cy="293.64985"
     inkscape:document-units="mm"
     inkscape:current-layer="layer3"
     showgrid="false"
     units="px"
     showguides="false"
     inkscape:window-width="1920"
     inkscape:window-height="1057"
     inkscape:window-x="-8"
     inkscape:window-y="-8"
     inkscape:window-maximized="1">
    <inkscape:grid
       type="xygrid"
       id="grid4573" />
  </sodipodi:namedview>
  <metadata
     id="metadata5">
    <rdf:RDF>
      <cc:Work
         rdf:about="">
        <dc:format>image/svg+xml</dc:format>
        <dc:type
           rdf:resource="http://purl.org/dc/dcmitype/StillImage" />
        <dc:title></dc:title>
      </cc:Work>
    </rdf:RDF>
  </metadata>
  <g
     inkscape:label="Hinten"
     inkscape:groupmode="layer"
     id="layer1"
     transform="translate(0,-144.59998)"
     style="display:inline">
    <rect
       style="fill:url(#linearGradient5218);fill-opacity:1;stroke-width:0.30180612"
       id="rect5208"
       width="152.39999"
       height="152.39999"
       x="3.0517579e-006"
       y="144.59998"
       ry="25.532837" />
  </g>
  <g
     inkscape:groupmode="layer"
     id="layer3"
     inkscape:label="Vorn"
     style="display:inline">
    <g
       id="g4690"
       style="filter:url(#filter5194)"
       transform="matrix(1.200327,0,0,1.200327,-15.264915,-15.264914)">
      <g
         id="g4659">
        <g
           inkscape:label="Logoa"
           id="g4612">
          <path
             sodipodi:nodetypes="scsscccccccss"
             inkscape:connector-curvature="0"
             id="path4592"
             d="m 26.595657,73.46703 -7.725314,-0.07023 0.04151,-1.53911 c 0.02047,-0.759074 -0.07224,-2.867071 -0.09657,-4.685053 l -0.04559,-3.406595 55.690371,0.08697 55.563906,-0.003 -0.0998,0.44473 c -0.0336,0.210267 -0.12731,0.959399 -0.20454,1.730142 -0.23602,2.355295 -0.55683,4.980511 -0.9085,6.472855 l -0.17352,0.740851 -1.3048,0.113966 c -1.45911,0.127447 -90.338526,0.208973 -100.737181,0.114446 z"
             style="fill:#ffffff;fill-opacity:1;stroke-width:0.09512796" />
          <path
             sodipodi:nodetypes="ccsccccsccccc"
             inkscape:connector-curvature="0"
             id="path4594"
             d="m 18.587791,85.307534 v -4.700635 l 39.211944,0.0074 c 38.285007,0.0072 66.113285,-0.0069 66.653575,0.12509 l 0.46695,0.107726 -0.34703,0.358973 c -0.12162,0.131483 -0.64681,0.664591 -1.17443,1.096752 -2.17166,1.778741 -3.98882,2.742783 -9.59913,5.881937 -1.16077,0.649489 -2.33797,1.325449 -2.616,1.502137 l -0.5055,0.321247 H 64.63298 18.587791 Z"
             style="fill:#ffffff;fill-opacity:1;stroke-width:0.09593136" />
          <path
             sodipodi:nodetypes="scccscsscs"
             inkscape:connector-curvature="0"
             id="path4596"
             d="m 18.856609,102.1705 c 0.03584,-2.520526 0.04626,-4.692538 0.06996,-4.718933 0.06734,-0.07499 83.278361,-0.0743 83.353421,8.15e-4 0.0367,0.0367 -0.44805,0.852589 -0.87379,1.713273 -0.91735,1.854545 -1.447269,3.201815 -2.004185,5.590535 l -0.408247,1.97751 -18.432827,0.0297 c -10.078846,0.0163 -28.057479,-0.01 -39.99654,0.0135 l -21.773899,0.0423 z"
             style="fill:#ffffff;fill-opacity:1;stroke-width:0.09597754" />
          <path
             sodipodi:nodetypes="cccscccccccsscccccccc"
             inkscape:connector-curvature="0"
             id="path4598"
             d="m 98.740837,108.79538 c 0,-0.65266 0.37436,-2.88068 0.722876,-4.35694 0.743537,-3.14951 1.929017,-7.171212 4.290427,-9.641663 1.99512,-2.087234 5.12442,-3.263634 11.12943,-6.655841 5.21676,-2.946927 6.96084,-4.210317 8.84411,-6.096138 3.08988,-3.094045 4.57816,-6.3977 5.40557,-11.666495 0.67083,-4.271767 1.19036,-10.73736 1.19249,-16.269949 l 0.11418,-2.499536 0.99526,-0.170494 0.57167,0.170494 0.14516,2.626458 c -0.44263,17.518539 -1.1322,22.12844 -3.94075,26.344973 -1.88836,2.835039 -4.48458,5.042628 -10.04982,8.545466 -2.96164,1.864099 -4.98712,3.283856 -6.42866,4.506172 -1.03953,0.881452 -3.00134,2.909655 -3.67523,3.799628 -2.16063,2.853395 -3.40201,5.990505 -4.02376,10.168485 -0.10083,0.67757 -0.20659,1.3692 -0.23501,1.53696 l -0.0516,0.30501 h -2.34197 -2.341977 z"
             style="fill:#ffffff;fill-opacity:1;stroke-width:0.09384903" />
        </g>
        <g
           id="g4586"
           clip-path="none"
           transform="matrix(0.80731937,0,0,0.80731937,14.030919,10.767152)"
           style="display:inline;fill:#fffff0;fill-opacity:1">
          <g
             clip-path="none"
             inkscape:label="Clip"
             id="g4584"
             style="fill:#fffff0;fill-opacity:1">
            <path
               inkscape:connector-curvature="0"
               id="path4565"
               d="m 103.76553,266.48459 c -0.0852,-0.33949 -0.0908,-0.78431 -0.0125,-0.98849 0.12641,-0.32946 -5.344669,-0.37123 -48.618181,-0.37123 -46.924662,0 -48.7760293,-0.017 -49.1696145,-0.45193 -0.3601913,-0.398 -0.4089846,-1.28248 -0.4089846,-7.41367 0,-6.63225 0.023392,-6.98514 0.4942449,-7.456 0.4910934,-0.49109 0.8237416,-0.49424 52.1678322,-0.49424 h 51.673583 l 1.76503,-1.63415 c 0.97077,-0.89878 2.25085,-1.98303 2.84462,-2.40945 l 1.07958,-0.77529 -54.561129,-0.0623 c -50.339754,-0.0575 -54.596002,-0.094 -55.0123978,-0.4708 -0.4166445,-0.37705 -0.4513133,-0.94288 -0.4513133,-7.36588 0,-5.17789 0.079011,-7.06457 0.3089031,-7.37621 0.2887993,-0.39149 4.595019,-0.42271 66.167041,-0.47969 l 65.858136,-0.0609 1.02111,-1.97698 c 0.5616,-1.08734 1.09732,-2.22719 1.19048,-2.53301 l 0.16938,-0.55602 H 73.302161 c -60.551586,0 -67.0064044,-0.0372 -67.3575258,-0.38834 -0.3347729,-0.33477 -0.3883353,-1.35489 -0.3883353,-7.39602 0,-6.04113 0.053562,-7.06125 0.3883353,-7.39602 0.3511514,-0.35115 6.9030858,-0.38834 68.4261328,-0.38834 h 68.037792 l 0.13815,-0.55602 c 0.076,-0.30582 0.2156,-3.44736 0.31026,-6.98121 0.11324,-4.22714 0.26536,-6.4873 0.44467,-6.60674 0.38605,-0.25717 3.41497,-0.22598 3.83433,0.0395 0.64807,0.41023 0.0538,18.18655 -0.85968,25.71734 -0.5001,4.12263 -1.15247,6.59395 -2.4468,9.269 -2.67965,5.53817 -5.04404,7.65232 -17.48005,15.63003 -6.36253,4.08157 -10.01521,8.1565 -12.06252,13.45693 -0.63279,1.63828 -1.35307,4.80573 -1.85713,8.16675 l -0.13899,0.92671 h -4.18517 -4.18518 z m 7.54741,-2.16287 c 0.97411,-6.79638 3.16679,-11.30974 7.65361,-15.75406 2.37578,-2.35327 4.80019,-4.12735 10.64522,-7.78971 10.98453,-6.88265 14.20962,-11.51503 15.4266,-22.1581 0.43389,-3.79452 0.81653,-10.93778 0.98043,-18.30284 l 0.11411,-5.1278 h -0.97046 -0.97045 l -0.001,4.01574 c -0.002,7.2557 -0.76214,16.61672 -1.73185,21.32959 -0.91564,4.45008 -2.20611,7.37672 -4.57531,10.37625 -2.61593,3.3119 -5.62838,5.53273 -13.21436,9.74186 -8.00062,4.43919 -11.23297,6.80684 -14.00253,10.25664 -1.77857,2.21541 -3.52527,5.48446 -4.26713,7.98614 -0.54485,1.83736 -1.25302,5.65567 -1.25302,6.75605 v 0.709 h 2.93704 2.93704 l 0.29221,-2.03876 z m -6.77131,-3.5464 c 0.61564,-2.74509 1.51966,-5.22699 2.61226,-7.17173 0.39111,-0.69613 0.71111,-1.33583 0.71111,-1.42155 0,-0.0857 -22.602437,-0.12779 -50.22764,-0.0935 l -50.2276416,0.0624 -0.066422,5.62265 -0.066422,5.62266 48.3524766,-0.0624 48.352469,-0.0624 z m 6.4124,-11.21917 c 0.246,-0.27183 0.39168,-0.49424 0.32372,-0.49424 -0.068,0 -0.32484,0.22241 -0.57085,0.49424 -0.246,0.27184 -0.39168,0.49425 -0.32372,0.49425 0.068,0 0.32484,-0.22241 0.57085,-0.49425 z m 2.13206,-2.16232 c 0.30739,-0.39195 0.29865,-0.40069 -0.0933,-0.0933 -0.41165,0.32283 -0.54256,0.52577 -0.33916,0.52577 0.0513,0 0.24592,-0.19461 0.43246,-0.43247 z m 6.33679,-5.33496 c 0.50699,-0.31781 2.20066,-1.27783 3.76371,-2.13338 4.74446,-2.5969 7.93042,-4.59094 10.02315,-6.27333 1.09543,-0.88063 2.13769,-1.77708 2.31615,-1.99211 0.29575,-0.35636 -5.36435,-0.39096 -63.957634,-0.39096 H 7.2861572 v 5.68382 5.68381 H 62.893622 118.50108 Z m 21.25619,-20.24221 c 0.30169,-0.3663 1.209,-5.70521 1.41739,-8.34038 0.0806,-1.01938 0.19798,-2.10363 0.26083,-2.40945 l 0.11427,-0.55602 H 74.87886 7.2861572 v 5.64262 c 0,3.10345 0.074137,5.71677 0.1647483,5.80738 0.090611,0.0906 30.0467705,0.16475 66.5692455,0.16475 52.823149,0 66.456529,-0.0632 66.658919,-0.3089 z m 2.78034,-31.61358 c -1.55459,-1.05674 -1.89228,-3.26709 -0.72572,-4.75013 0.46798,-0.59494 0.65044,-0.64288 2.4468,-0.64288 1.80776,0 1.97666,0.0452 2.45866,0.65796 0.66731,0.84836 0.84822,1.60385 0.64432,2.69075 -0.4159,2.21692 -2.97484,3.30133 -4.82406,2.0443 z"
               style="fill:#ffffff;fill-opacity:1;stroke-width:0.24712245"
               transform="translate(0,-144.59998)" />
          </g>
          <ellipse
             ry="3.2262297"
             rx="3.1722062"
             cy="187.42331"
             cx="145.28514"
             id="path4571"
             style="fill:#fffff0;fill-opacity:1;stroke-width:0.32249692"
             transform="translate(0,-144.59998)" />
        </g>
      </g>
    </g>
  </g>
</svg>
